<svg width="40" height="41" viewBox="0 0 40 41" fill="none" xmlns="http://www.w3.org/2000/svg">
<g clip-path="url(#clip0_11_47)">
<path fill-rule="evenodd" clip-rule="evenodd" d="M20.0165 0.5C8.94791 0.5 0 9.51388 0 20.6653C0 29.5792 5.73324 37.1246 13.6868 39.7952C14.6812 39.9959 15.0454 39.3613 15.0454 38.8274C15.0454 38.3599 15.0126 36.7575 15.0126 35.0879C9.4445 36.29 8.28498 32.6841 8.28498 32.6841C7.39015 30.347 6.06429 29.7463 6.06429 29.7463C4.24185 28.511 6.19704 28.511 6.19704 28.511C8.21861 28.6446 9.27938 30.581 9.27938 30.581C11.0686 33.6522 13.9518 32.7844 15.1118 32.2502C15.2773 30.9481 15.8079 30.0467 16.3713 29.546C11.9303 29.0785 7.25781 27.3425 7.25781 19.5967C7.25781 17.3932 8.05267 15.5905 9.31216 14.1884C9.11344 13.6877 8.41733 11.6174 9.51128 8.84644C9.51128 8.84644 11.2014 8.31217 15.0122 10.9164C16.6438 10.4749 18.3263 10.2504 20.0165 10.2485C21.7067 10.2485 23.4295 10.4825 25.0205 10.9164C28.8317 8.31217 30.5218 8.84644 30.5218 8.84644C31.6158 11.6174 30.9192 13.6877 30.7205 14.1884C32.0132 15.5905 32.7753 17.3932 32.7753 19.5967C32.7753 27.3425 28.1028 29.0449 23.6287 29.546C24.358 30.1802 24.9873 31.382 24.9873 33.2851C24.9873 35.9893 24.9545 38.1596 24.9545 38.827C24.9545 39.3613 25.3192 39.9959 26.3132 39.7956C34.2667 37.1242 39.9999 29.5792 39.9999 20.6653C40.0327 9.51388 31.052 0.5 20.0165 0.5Z" fill="black"/>
</g>
<defs>
<clipPath id="clip0_11_47">
<rect width="40" height="40" fill="white" transform="translate(0 0.5)"/>
</clipPath>
</defs>
</svg>
