<svg width="40" height="41" viewBox="0 0 40 41" xmlns="http://www.w3.org/2000/svg">
<g clip-path="url(#clip0_11_46)">
<path d="M37.0472 0.5H2.95278C2.16965 0.5 1.4186 0.811096 0.864849 1.36485C0.311096 1.9186 0 2.66965 0 3.45278V37.5472C0 38.3303 0.311096 39.0814 0.864849 39.6352C1.4186 40.1889 2.16965 40.5 2.95278 40.5H37.0472C37.8303 40.5 38.5814 40.1889 39.1352 39.6352C39.6889 39.0814 40 38.3303 40 37.5472V3.45278C40 2.66965 39.6889 1.9186 39.1352 1.36485C38.5814 0.811096 37.8303 0.5 37.0472 0.5ZM11.9222 34.575H5.90833V15.4722H11.9222V34.575ZM8.91111 12.825C8.22894 12.8212 7.56319 12.6153 6.99789 12.2335C6.43259 11.8516 5.99307 11.3109 5.7348 10.6795C5.47652 10.0481 5.41108 9.35432 5.54672 8.68576C5.68236 8.0172 6.013 7.40379 6.49693 6.92297C6.98085 6.44214 7.59636 6.11544 8.26578 5.9841C8.9352 5.85276 9.62852 5.92266 10.2583 6.18498C10.888 6.4473 11.4259 6.89028 11.8041 7.45802C12.1823 8.02576 12.3839 8.69282 12.3833 9.375C12.3898 9.83172 12.3042 10.2851 12.1317 10.708C11.9592 11.1309 11.7033 11.5148 11.3793 11.8368C11.0553 12.1587 10.6697 12.4121 10.2457 12.5819C9.82167 12.7517 9.36778 12.8344 8.91111 12.825ZM34.0889 34.5917H28.0778V24.1556C28.0778 21.0778 26.7694 20.1278 25.0806 20.1278C23.2972 20.1278 21.5472 21.4722 21.5472 24.2333V34.5917H15.5333V15.4861H21.3167V18.1333H21.3944C21.975 16.9583 24.0083 14.95 27.1111 14.95C30.4667 14.95 34.0917 16.9417 34.0917 22.775L34.0889 34.5917Z"/>
</g>
<defs>
<clipPath id="clip0_11_46">
<rect width="40" height="40" fill="white" transform="translate(0 0.5)"/>
</clipPath>
</defs>
</svg>
